name analog
datacolumns 19
datarows 42
range 0.165 0.1855
endheader
time	ground_force_vx	ground_force_vy	ground_force_vz	ground_force_px	ground_force_py	ground_force_pz	l_ground_force_vx	l_ground_force_vy	l_ground_force_vz	l_ground_force_px	l_ground_force_py	l_ground_force_pz	ground_torque_x	ground_torque_y	ground_torque_z	l_ground_torque_x	l_ground_torque_y	l_ground_torque_z
0.165	-0.0	-0.0	-0.0	-9.362957000732422	24.709836959838867	-161.8385009765625	9.15798568725586	-11.237537384033203	-347.3895263671875	-0.0	-0.0	-0.0	-0.0	-0.0	-0.0	101544.609375	9024.158203125	1434.4796142578125
0.1655	-0.0	-0.0	-0.0	-9.367103576660156	24.39645004272461	-158.66127014160156	9.154109954833984	-11.393497467041016	-350.51495361328125	-0.0	-0.0	-0.0	-0.0	-0.0	-0.0	103051.84375	9096.6708984375	1491.056640625
0.166	-0.0	-0.0	-0.0	-8.938165664672852	23.76789283752441	-155.41610717773438	8.985505104064941	-11.725448608398438	-354.0228576660156	-0.0	-0.0	-0.0	-0.0	-0.0	-0.0	104072.2109375	9370.7890625	1498.0797119140625
0.1665	-0.0	-0.0	-0.0	-8.666485786437988	22.723901748657227	-152.85794067382812	9.647665023803713	-11.641090393066406	-356.1861572265625	-0.0	-0.0	-0.0	-0.0	-0.0	-0.0	105187.890625	9585.330078125	1660.7147216796875
0.167	-0.0	-0.0	-0.0	-9.16660213470459	21.952550888061523	-149.0069580078125	9.47878646850586	-11.720364570617676	-359.2248229980469	-0.0	-0.0	-0.0	-0.0	-0.0	-0.0	105669.5	9806.591796875	1581.8739013671875
0.1675	-0.0	-0.0	-0.0	-8.742630004882812	21.640729904174805	-145.54571533203125	9.664976119995115	-11.835105895996094	-362.3485412597656	-0.0	-0.0	-0.0	-0.0	-0.0	-0.0	106341.53125	9931.07421875	1783.7099609375
0.168	-0.0	-0.0	-0.0	-8.639727592468262	20.607362747192383	-141.94219970703125	9.944746971130373	-11.728586196899414	-365.2845153808594	-0.0	-0.0	-0.0	-0.0	-0.0	-0.0	106865.8671875	10054.599609375	1818.1842041015625
0.1685	-0.0	-0.0	-0.0	-8.550334930419922	20.15733337402344	-138.78140258789062	10.299711227416992	-11.570140838623049	-366.6456298828125	-0.0	-0.0	-0.0	-0.0	-0.0	-0.0	107789.2109375	10077.451171875	1938.741943359375
0.169	-0.0	-0.0	-0.0	-8.052456855773926	19.35539054870605	-133.61370849609375	9.71183967590332	-11.333294868469238	-368.00579833984375	-0.0	-0.0	-0.0	-0.0	-0.0	-0.0	108433.859375	10170.7421875	2016.461181640625
0.1695	-0.0	-0.0	-0.0	-8.024173736572266	18.469066619873047	-131.04864501953125	10.374384880065918	-11.918671607971191	-373.0550842285156	-0.0	-0.0	-0.0	-0.0	-0.0	-0.0	109094.4921875	10367.5146484375	2054.364501953125
0.17	-0.0	-0.0	-0.0	-7.845690727233887	18.018829345703125	-127.49795532226562	10.403352737426758	-12.252629280090332	-374.56353759765625	-0.0	-0.0	-0.0	-0.0	-0.0	-0.0	109358.4765625	10336.5087890625	2197.807861328125
0.1705	-0.0	-0.0	-0.0	-7.85052490234375	16.879989624023438	-124.67251586914062	10.753662109375	-12.44846534729004	-377.9378051757813	-0.0	-0.0	-0.0	-0.0	-0.0	-0.0	110332.9296875	10473.23046875	2222.7158203125
0.171	-0.0	-0.0	-0.0	-7.508596420288086	16.13260269165039	-120.4146728515625	10.645294189453123	-12.483074188232422	-381.25396728515625	-0.0	-0.0	-0.0	-0.0	-0.0	-0.0	111466.7109375	10532.8955078125	2400.533935546875
0.1715	-0.0	-0.0	-0.0	-7.325358867645264	15.85512351989746	-116.8226089477539	11.005188941955566	-12.213540077209473	-386.10205078125	-0.0	-0.0	-0.0	-0.0	-0.0	-0.0	113020.765625	11161.048828125	2232.90576171875
0.17200000000000001	-0.0	-0.0	-0.0	-7.588012218475342	14.0928316116333	-112.46174621582033	11.078605651855469	-12.796446800231934	-391.0498046875	-0.0	-0.0	-0.0	-0.0	-0.0	-0.0	113944.8671875	11350.7275390625	2576.83740234375
0.17250000000000001	-0.0	-0.0	-0.0	-7.898296356201172	13.133220672607422	-106.76287078857422	11.516855239868164	-13.05097198486328	-394.6228942871094	-0.0	-0.0	-0.0	-0.0	-0.0	-0.0	115495.3359375	11666.6494140625	2554.25048828125
0.17300000000000001	-0.0	-0.0	-0.0	-7.514712333679199	12.378620147705078	-102.4013671875	11.376016616821287	-13.279668807983398	-401.1338195800781	-0.0	-0.0	-0.0	-0.0	-0.0	-0.0	117027.3984375	12019.794921875	2615.153076171875
0.17350000000000002	-0.0	-0.0	-0.0	-8.50560474395752	11.75989055633545	-98.4950180053711	11.26626968383789	-14.037842750549316	-406.00042724609375	-0.0	-0.0	-0.0	-0.0	-0.0	-0.0	118439.515625	12182.53515625	2583.4365234375
0.17400000000000002	-0.0	-0.0	-0.0	-8.369620323181152	11.103610038757324	-96.8566436767578	11.17755889892578	-14.573078155517578	-408.8565673828125	-0.0	-0.0	-0.0	-0.0	-0.0	-0.0	119399.34375	12708.9345703125	2553.552978515625
0.17450000000000002	-0.0	-0.0	-0.0	-8.49686050415039	9.720674514770508	-93.67923736572266	10.672625541687012	-15.257883071899414	-412.34808349609375	-0.0	-0.0	-0.0	-0.0	-0.0	-0.0	120017.5859375	13129.40625	2467.657958984375
0.17500000000000002	-0.0	-0.0	-0.0	-8.056575775146484	9.224599838256836	-89.7733383178711	10.556583404541016	-15.296157836914062	-415.6873474121094	-0.0	-0.0	-0.0	-0.0	-0.0	-0.0	120702.6328125	13141.798828125	2245.05712890625
0.17550000000000002	-0.0	-0.0	-0.0	-8.491808891296387	9.14684009552002	-88.60379791259766	10.12423610687256	-15.732417106628418	-414.8803405761719	-0.0	-0.0	-0.0	-0.0	-0.0	-0.0	120808.9296875	13506.5712890625	2231.754638671875
0.176	-0.0	-0.0	-0.0	-8.854536056518555	8.7177734375	-85.86764526367188	9.780879020690918	-15.726908683776855	-416.9316711425781	-0.0	-0.0	-0.0	-0.0	-0.0	-0.0	121462.0703125	13699.642578125	2312.962646484375
0.1765	-0.0	-0.0	-0.0	-8.24177360534668	8.567976951599121	-84.03411865234375	10.118762969970703	-15.809581756591797	-419.1731567382813	-0.0	-0.0	-0.0	-0.0	-0.0	-0.0	121843.140625	13831.716796875	2140.90869140625
0.177	-0.0	-0.0	-0.0	-8.486621856689453	8.217416763305664	-82.24490356445312	9.93560791015625	-15.732830047607422	-419.0276794433594	-0.0	-0.0	-0.0	-0.0	-0.0	-0.0	122115.71875	14376.85546875	2261.423095703125
0.1775	-0.0	-0.0	-0.0	-8.331871032714844	7.938482761383057	-79.48876953125	9.391582489013672	-15.691987037658691	-421.79827880859375	-0.0	-0.0	-0.0	-0.0	-0.0	-0.0	122692.140625	14424.8369140625	2266.992431640625
0.178	-0.0	-0.0	-0.0	-8.641531944274902	7.522584438323975	-77.01675415039062	9.93560791015625	-15.149920463562012	-422.496826171875	-0.0	-0.0	-0.0	-0.0	-0.0	-0.0	123212.765625	14555.9775390625	2376.34130859375
0.1785	-0.0	-0.0	-0.0	-8.207366943359375	7.261665821075439	-76.12003326416016	9.858932495117188	-14.83205223083496	-426.19573974609375	-0.0	-0.0	-0.0	-0.0	-0.0	-0.0	123972.2265625	14731.08984375	2488.987060546875
0.179	-0.0	-0.0	-0.0	-8.379707336425781	7.225637912750244	-72.52225494384766	9.580764770507812	-14.20768928527832	-427.6868286132813	-0.0	-0.0	-0.0	-0.0	-0.0	-0.0	124400.7890625	15119.306640625	2492.9521484375
0.1795	-0.0	-0.0	-0.0	-8.681048393249512	7.397823333740234	-70.02714538574219	9.822278022766112	-13.87876033782959	-430.0821228027344	-0.0	-0.0	-0.0	-0.0	-0.0	-0.0	124930.6484375	15803.0341796875	2633.269287109375
0.18	-0.0	-0.0	-0.0	-9.080785751342772	6.543858528137207	-68.9687271118164	9.681925773620604	-13.4310941696167	-431.50238037109375	-0.0	-0.0	-0.0	-0.0	-0.0	-0.0	125703.8515625	15637.0771484375	2499.416748046875
0.1805	-0.0	-0.0	-0.0	-9.53923511505127	6.372246265411377	-67.02948760986328	9.57447910308838	-13.929794311523438	-433.3466491699219	-0.0	-0.0	-0.0	-0.0	-0.0	-0.0	126629.046875	15664.419921875	2617.91015625
0.181	-0.0	-0.0	-0.0	-10.208271980285645	5.901690483093262	-64.32916259765625	9.587127685546877	-13.677191734313965	-437.3117065429688	-0.0	-0.0	-0.0	-0.0	-0.0	-0.0	127277.890625	16002.845703125	2577.733154296875
0.1815	-0.0	-0.0	-0.0	-10.768722534179688	5.926715850830078	-60.06607437133789	9.18223762512207	-13.222636222839355	-440.7000122070313	-0.0	-0.0	-0.0	-0.0	-0.0	-0.0	127858.75	16222.48828125	2583.943359375
0.182	-0.0	-0.0	-0.0	-10.95339584350586	5.526084899902344	-60.54111099243164	9.580764770507812	-13.941895484924316	-440.62933349609375	-0.0	-0.0	-0.0	-0.0	-0.0	-0.0	128544.1015625	16456.0234375	2630.34326171875
0.1825	-0.0	-0.0	-0.0	-10.999194145202637	4.565358638763428	-56.4046630859375	9.34091091156006	-13.859963417053224	-442.4526977539063	-0.0	-0.0	-0.0	-0.0	-0.0	-0.0	129149.4609375	16559.46875	2524.566162109375
0.183	-0.0	-0.0	-0.0	-10.807743072509766	3.9615166187286377	-54.3371696472168	9.40997314453125	-14.105067253112791	-445.1422424316406	-0.0	-0.0	-0.0	-0.0	-0.0	-0.0	129636.859375	16585.630859375	2556.433837890625
0.1835	-0.0	-0.0	-0.0	-10.526840209960938	4.2159576416015625	-51.43138122558594	9.334753036499023	-14.008245468139648	-448.5542602539063	-0.0	-0.0	-0.0	-0.0	-0.0	-0.0	130269.1953125	16877.75	2583.852294921875
0.184	-0.0	-0.0	-0.0	-10.348419189453123	4.182351112365723	-46.700321197509766	9.635591506958008	-14.546090126037598	-447.7457275390625	-0.0	-0.0	-0.0	-0.0	-0.0	-0.0	131161.453125	16992.931640625	2750.583251953125
0.1845	-0.0	-0.0	-0.0	-10.156310081481934	3.1537539958953857	-44.2016830444336	9.505727767944336	-14.50517749786377	-451.4261474609375	-0.0	-0.0	-0.0	-0.0	-0.0	-0.0	131593.390625	17107.513671875	2615.7978515625
0.185	-0.0	-0.0	-0.0	-9.751631736755373	3.222525119781494	-41.26724624633789	9.765100479125977	-14.701536178588867	-457.1437072753906	-0.0	-0.0	-0.0	-0.0	-0.0	-0.0	132501.90625	17463.326171875	2702.638427734375
0.1855	-0.0	-0.0	-0.0	-9.524578094482422	3.0777082443237305	-37.24974822998047	10.126977920532228	-14.851930618286133	-455.13671875	-0.0	-0.0	-0.0	-0.0	-0.0	-0.0	133163.6875	17594.556640625	2926.177001953125
